# xmcd
#
# Track frame offsets:
# 150
# 18618
# 39825
# 58389
# 72729
# 86825
# 100904
# 120033
# 142730
# 159990
# 177965
# 196145
# 213273
# 226299
# 246809
#
# Disc length: 3481 seconds
#
#
# Revision: 1
# Processed by: cddbd v1.5.2PL0 Copyright (c) Steve Scherf et al.
# Submitted via: FreeRIP 2.951 
#
DISCID=c50d970f
DTITLE=Marina Lima - Novelas
DYEAR=2007
DGENRE=Pop
TTITLE0=Fullgás
TTITLE1=Uma Noite e 1/2
TTITLE2=À Francesa
TTITLE3=Preciso Dizer Que Te Amo
TTITLE4=Nada Por Mim
TTITLE5=Pessoa
TTITLE6=Charme do Mundo
TTITLE7=Não Sei Dançar
TTITLE8=A Chave do Mundo
TTITLE9=O Chamado
TTITLE10=Acontecimentos
TTITLE11=Gata Todo Dia
TTITLE12=Antiga Manhã
TTITLE13=Pra Começar
TTITLE14=Difícil
EXTD=
EXTT0=
EXTT1=
EXTT2=
EXTT3=
EXTT4=
EXTT5=
EXTT6=
EXTT7=
EXTT8=
EXTT9=
EXTT10=
EXTT11=
EXTT12=
EXTT13=
EXTT14=
PLAYORDER=
